ffmpeg started on 2025-06-07 at 16:49:23
Report written to "D:\Convert\FFMetrics\reports\ssim_report-6.txt"
Log level: 32
Command line:
ffmpeg -hide_banner -nostdin -i "G:\\\xc0\xed\xe8\xec\xe5\\\xce\xed\xe3\xee\xe8\xed\xe3\xe8\\!_36_\xce\xf1\xe5\xed\xfc_2024\\DreamCast\\\xd6\xe8\xea\xeb \xe8\xf1\xf2\xee\xf0\xe8\xe9 - \xcc\xe5\xe6\xf1\xe5\xe7\xee\xed\xfc\xe5 \xe8 \xf1\xe5\xe7\xee\xed \xec\xee\xed\xf1\xf2\xf0\xee\xe2\\DC_Monogatari_Series_Off_and_Monster_Season_10_Telegram_HEVC.mkv" -i "G:\\\xc0\xed\xe8\xec\xe5\\\xce\xed\xe3\xee\xe8\xed\xe3\xe8\\!_36_\xce\xf1\xe5\xed\xfc_2024\\DreamCast\\\xd6\xe8\xea\xeb \xe8\xf1\xf2\xee\xf0\xe8\xe9 - \xcc\xe5\xe6\xf1\xe5\xe7\xee\xed\xfc\xe5 \xe8 \xf1\xe5\xe7\xee\xed \xec\xee\xed\xf1\xf2\xf0\xee\xe2\\DC_Monogatari_Series_Off_and_Monster_Season_10_Telegram.mp4" -lavfi "[0:v]settb=AVTB,setpts=PTS-STARTPTS,format=pix_fmts=yuv420p10,fps=24000/1001,scale=1920:1080:flags=bicubic[main];[1:v]settb=AVTB,setpts=PTS-STARTPTS,format=pix_fmts=yuv420p,fps=24000/1001,scale=1920:1080:flags=bicubic[ref];[main][ref]ssim=eof_action=endall:stats_file='D\\:/Convert/FFMetrics/logs/ssim_logfile-6.txt'" -f null -
Input #0, matroska,webm, from 'G:\Аниме\Онгоинги\!_36_Осень_2024\DreamCast\Цикл историй - Межсезонье и сезон монстров\DC_Monogatari_Series_Off_and_Monster_Season_10_Telegram_HEVC.mkv':
  Metadata:
    COMPATIBLE_BRANDS: isomiso2avc1mp41
    MAJOR_BRAND     : isom
    MINOR_VERSION   : 512
    ENCODER         : Lavf61.7.100
  Duration: 00:23:41.74, start: -0.021000, bitrate: 1273 kb/s
  Stream #0:0: Video: hevc (Main 10), yuv420p10le(tv, bt709, progressive), 1920x1080 [SAR 1:1 DAR 16:9], 23.98 fps, 23.98 tbr, 1k tbn (default)
      Metadata:
        HANDLER_NAME    : VideoHandler
        VENDOR_ID       : [0][0][0][0]
        ENCODER         : Lavc61.19.100 libx265
        BPS             : 1075151
        DURATION        : 00:23:41.586708333
        NUMBER_OF_FRAMES: 34084
        NUMBER_OF_BYTES : 191052619
        _STATISTICS_WRITING_APP: mkvpropedit v66.0.0 ('Josie') 64-bit
        _STATISTICS_WRITING_DATE_UTC: 2025-06-05 11:58:55
        _STATISTICS_TAGS: BPS DURATION NUMBER_OF_FRAMES NUMBER_OF_BYTES
  Stream #0:1: Audio: aac (LC), 48000 Hz, stereo, fltp (default)
      Metadata:
        HANDLER_NAME    : SoundHandler
        VENDOR_ID       : [0][0][0][0]
        ENCODER         : Lavc61.19.100 aac
        BPS             : 194204
        DURATION        : 00:23:41.738000000
        NUMBER_OF_FRAMES: 66645
        NUMBER_OF_BYTES : 34513537
        _STATISTICS_WRITING_APP: mkvpropedit v66.0.0 ('Josie') 64-bit
        _STATISTICS_WRITING_DATE_UTC: 2025-06-05 11:58:55
        _STATISTICS_TAGS: BPS DURATION NUMBER_OF_FRAMES NUMBER_OF_BYTES
Input #1, mov,mp4,m4a,3gp,3g2,mj2, from 'G:\Аниме\Онгоинги\!_36_Осень_2024\DreamCast\Цикл историй - Межсезонье и сезон монстров\DC_Monogatari_Series_Off_and_Monster_Season_10_Telegram.mp4':
  Metadata:
    major_brand     : isom
    minor_version   : 512
    compatible_brands: isomiso2avc1mp41
    encoder         : Lavf61.1.100
  Duration: 00:23:41.71, start: 0.000000, bitrate: 3169 kb/s
  Stream #1:0[0x1](und): Video: h264 (High) (avc1 / 0x31637661), yuv420p(tv, bt709, progressive), 1920x1080 [SAR 1:1 DAR 16:9], 3021 kb/s, 23.98 fps, 23.98 tbr, 24k tbn (default)
      Metadata:
        handler_name    : VideoHandler
        vendor_id       : [0][0][0][0]
        encoder         : Lavc61.3.100 h264_qsv
  Stream #1:1[0x2](und): Audio: aac (HE-AACv2) (mp4a / 0x6134706D), 48000 Hz, stereo, fltp, 144 kb/s (default)
      Metadata:
        handler_name    : SoundHandler
        vendor_id       : [0][0][0][0]
Stream mapping:
  Stream #0:0 (hevc) -> settb:default
  Stream #1:0 (h264) -> settb:default
  ssim:default -> Stream #0:0 (wrapped_avframe)
  Stream #0:1 -> #0:1 (aac (native) -> pcm_s16le (native))
Output #0, null, to 'pipe:':
  Metadata:
    COMPATIBLE_BRANDS: isomiso2avc1mp41
    MAJOR_BRAND     : isom
    MINOR_VERSION   : 512
    encoder         : Lavf61.7.100
  Stream #0:0: Video: wrapped_avframe, yuv420p10le(tv, bt709, progressive), 1920x1080 [SAR 1:1 DAR 16:9], q=2-31, 200 kb/s, 23.98 fps, 23.98 tbn
      Metadata:
        encoder         : Lavc61.19.100 wrapped_avframe
  Stream #0:1: Audio: pcm_s16le, 48000 Hz, stereo, s16, 1536 kb/s (default)
      Metadata:
        HANDLER_NAME    : SoundHandler
        VENDOR_ID       : [0][0][0][0]
        _STATISTICS_TAGS: BPS DURATION NUMBER_OF_FRAMES NUMBER_OF_BYTES
        BPS             : 194204
        DURATION        : 00:23:41.738000000
        NUMBER_OF_FRAMES: 66645
        NUMBER_OF_BYTES : 34513537
        _STATISTICS_WRITING_APP: mkvpropedit v66.0.0 ('Josie') 64-bit
        _STATISTICS_WRITING_DATE_UTC: 2025-06-05 11:58:55
        encoder         : Lavc61.19.100 pcm_s16le
frame=  170 fps=0.0 q=-0.0 size=N/A time=00:00:07.09 bitrate=N/A speed=  14x    frame=  445 fps=431 q=-0.0 size=N/A time=00:00:18.56 bitrate=N/A speed=  18x    frame=  694 fps=450 q=-0.0 size=N/A time=00:00:28.94 bitrate=N/A speed=18.8x    frame=  959 fps=467 q=-0.0 size=N/A time=00:00:39.99 bitrate=N/A speed=19.5x    frame= 1221 fps=474 q=-0.0 size=N/A time=00:00:50.92 bitrate=N/A speed=19.8x    frame= 1464 fps=474 q=-0.0 size=N/A time=00:01:01.06 bitrate=N/A speed=19.8x    frame= 1724 fps=479 q=-0.0 size=N/A time=00:01:11.90 bitrate=N/A speed=  20x    frame= 2008 fps=487 q=-0.0 size=N/A time=00:01:23.75 bitrate=N/A speed=20.3x    frame= 2297 fps=495 q=-0.0 size=N/A time=00:01:35.80 bitrate=N/A speed=20.7x    frame= 2553 fps=495 q=-0.0 size=N/A time=00:01:46.48 bitrate=N/A speed=20.6x    frame= 2716 fps=479 q=-0.0 size=N/A time=00:01:53.27 bitrate=N/A speed=  20x    frame= 2890 fps=467 q=-0.0 size=N/A time=00:02:00.53 bitrate=N/A speed=19.5x    frame= 3168 fps=473 q=-0.0 size=N/A time=00:02:12.13 bitrate=N/A speed=19.7x    frame= 3425 fps=475 q=-0.0 size=N/A time=00:02:22.85 bitrate=N/A speed=19.8x    frame= 3722 fps=481 q=-0.0 size=N/A time=00:02:35.23 bitrate=N/A speed=20.1x    frame= 4020 fps=488 q=-0.0 size=N/A time=00:02:47.66 bitrate=N/A speed=20.3x    frame= 4300 fps=491 q=-0.0 size=N/A time=00:02:59.34 bitrate=N/A speed=20.5x    frame= 4582 fps=494 q=-0.0 size=N/A time=00:03:11.10 bitrate=N/A speed=20.6x    frame= 4863 fps=497 q=-0.0 size=N/A time=00:03:22.82 bitrate=N/A speed=20.7x    frame= 5131 fps=498 q=-0.0 size=N/A time=00:03:34.00 bitrate=N/A speed=20.8x    frame= 5406 fps=500 q=-0.0 size=N/A time=00:03:45.47 bitrate=N/A speed=20.8x    frame= 5677 fps=501 q=-0.0 size=N/A time=00:03:56.77 bitrate=N/A speed=20.9x    frame= 5946 fps=502 q=-0.0 size=N/A time=00:04:07.99 bitrate=N/A speed=20.9x    frame= 6242 fps=505 q=-0.0 size=N/A time=00:04:20.34 bitrate=N/A speed=  21x    frame= 6522 fps=506 q=-0.0 size=N/A time=00:04:32.02 bitrate=N/A speed=21.1x    frame= 6809 fps=508 q=-0.0 size=N/A time=00:04:43.99 bitrate=N/A speed=21.2x    frame= 7071 fps=508 q=-0.0 size=N/A time=00:04:54.91 bitrate=N/A speed=21.2x    frame= 7338 fps=509 q=-0.0 size=N/A time=00:05:06.05 bitrate=N/A speed=21.2x    frame= 7623 fps=510 q=-0.0 size=N/A time=00:05:17.94 bitrate=N/A speed=21.3x    frame= 7912 fps=512 q=-0.0 size=N/A time=00:05:29.99 bitrate=N/A speed=21.3x    frame= 8179 fps=512 q=-0.0 size=N/A time=00:05:41.13 bitrate=N/A speed=21.4x    frame= 8468 fps=514 q=-0.0 size=N/A time=00:05:53.18 bitrate=N/A speed=21.4x    frame= 8755 fps=515 q=-0.0 size=N/A time=00:06:05.15 bitrate=N/A speed=21.5x    frame= 9007 fps=514 q=-0.0 size=N/A time=00:06:15.66 bitrate=N/A speed=21.4x    frame= 9266 fps=513 q=-0.0 size=N/A time=00:06:26.46 bitrate=N/A speed=21.4x    frame= 9538 fps=514 q=-0.0 size=N/A time=00:06:37.81 bitrate=N/A speed=21.4x    frame= 9810 fps=514 q=-0.0 size=N/A time=00:06:49.15 bitrate=N/A speed=21.4x    frame=10076 fps=514 q=-0.0 size=N/A time=00:07:00.25 bitrate=N/A speed=21.5x    frame=10355 fps=515 q=-0.0 size=N/A time=00:07:11.88 bitrate=N/A speed=21.5x    frame=10593 fps=514 q=-0.0 size=N/A time=00:07:21.81 bitrate=N/A speed=21.4x    frame=10849 fps=513 q=-0.0 size=N/A time=00:07:32.49 bitrate=N/A speed=21.4x    frame=11110 fps=513 q=-0.0 size=N/A time=00:07:43.37 bitrate=N/A speed=21.4x    frame=11379 fps=513 q=-0.0 size=N/A time=00:07:54.59 bitrate=N/A speed=21.4x    frame=11633 fps=513 q=-0.0 size=N/A time=00:08:05.19 bitrate=N/A speed=21.4x    frame=11919 fps=514 q=-0.0 size=N/A time=00:08:17.12 bitrate=N/A speed=21.4x    frame=12211 fps=515 q=-0.0 size=N/A time=00:08:29.30 bitrate=N/A speed=21.5x    frame=12491 fps=515 q=-0.0 size=N/A time=00:08:40.97 bitrate=N/A speed=21.5x    frame=12741 fps=515 q=-0.0 size=N/A time=00:08:51.40 bitrate=N/A speed=21.5x    frame=13026 fps=516 q=-0.0 size=N/A time=00:09:03.29 bitrate=N/A speed=21.5x    frame=13311 fps=516 q=-0.0 size=N/A time=00:09:15.17 bitrate=N/A speed=21.5x    frame=13572 fps=516 q=-0.0 size=N/A time=00:09:26.06 bitrate=N/A speed=21.5x    frame=13848 fps=517 q=-0.0 size=N/A time=00:09:37.57 bitrate=N/A speed=21.5x    frame=14133 fps=517 q=-0.0 size=N/A time=00:09:49.46 bitrate=N/A speed=21.6x    frame=14384 fps=517 q=-0.0 size=N/A time=00:09:59.93 bitrate=N/A speed=21.5x    frame=14636 fps=516 q=-0.0 size=N/A time=00:10:10.44 bitrate=N/A speed=21.5x    frame=14923 fps=517 q=-0.0 size=N/A time=00:10:22.41 bitrate=N/A speed=21.6x    frame=15213 fps=518 q=-0.0 size=N/A time=00:10:34.50 bitrate=N/A speed=21.6x    frame=15485 fps=518 q=-0.0 size=N/A time=00:10:45.85 bitrate=N/A speed=21.6x    frame=15776 fps=519 q=-0.0 size=N/A time=00:10:57.99 bitrate=N/A speed=21.6x    frame=16042 fps=519 q=-0.0 size=N/A time=00:11:09.08 bitrate=N/A speed=21.6x    frame=16256 fps=517 q=-0.0 size=N/A time=00:11:18.01 bitrate=N/A speed=21.6x    frame=16545 fps=518 q=-0.0 size=N/A time=00:11:30.06 bitrate=N/A speed=21.6x    frame=16825 fps=518 q=-0.0 size=N/A time=00:11:41.74 bitrate=N/A speed=21.6x    frame=17124 fps=519 q=-0.0 size=N/A time=00:11:54.21 bitrate=N/A speed=21.6x    frame=17404 fps=519 q=-0.0 size=N/A time=00:12:05.89 bitrate=N/A speed=21.7x    frame=17690 fps=520 q=-0.0 size=N/A time=00:12:17.82 bitrate=N/A speed=21.7x    frame=17966 fps=520 q=-0.0 size=N/A time=00:12:29.33 bitrate=N/A speed=21.7x    frame=18237 fps=520 q=-0.0 size=N/A time=00:12:40.63 bitrate=N/A speed=21.7x    frame=18486 fps=520 q=-0.0 size=N/A time=00:12:51.02 bitrate=N/A speed=21.7x    frame=18746 fps=519 q=-0.0 size=N/A time=00:13:01.86 bitrate=N/A speed=21.7x    frame=19024 fps=520 q=-0.0 size=N/A time=00:13:13.45 bitrate=N/A speed=21.7x    frame=19281 fps=519 q=-0.0 size=N/A time=00:13:24.17 bitrate=N/A speed=21.7x    frame=19570 fps=520 q=-0.0 size=N/A time=00:13:36.23 bitrate=N/A speed=21.7x    frame=19829 fps=520 q=-0.0 size=N/A time=00:13:47.03 bitrate=N/A speed=21.7x    frame=20047 fps=518 q=-0.0 size=N/A time=00:13:56.12 bitrate=N/A speed=21.6x    frame=20306 fps=518 q=-0.0 size=N/A time=00:14:06.92 bitrate=N/A speed=21.6x    frame=20589 fps=519 q=-0.0 size=N/A time=00:14:18.73 bitrate=N/A speed=21.6x    frame=20879 fps=519 q=-0.0 size=N/A time=00:14:30.82 bitrate=N/A speed=21.7x    frame=21161 fps=520 q=-0.0 size=N/A time=00:14:42.59 bitrate=N/A speed=21.7x    frame=21443 fps=520 q=-0.0 size=N/A time=00:14:54.35 bitrate=N/A speed=21.7x    frame=21707 fps=520 q=-0.0 size=N/A time=00:15:05.36 bitrate=N/A speed=21.7x    frame=21965 fps=520 q=-0.0 size=N/A time=00:15:16.12 bitrate=N/A speed=21.7x    frame=22211 fps=519 q=-0.0 size=N/A time=00:15:26.38 bitrate=N/A speed=21.7x    frame=22434 fps=518 q=-0.0 size=N/A time=00:15:35.68 bitrate=N/A speed=21.6x    frame=22682 fps=518 q=-0.0 size=N/A time=00:15:46.02 bitrate=N/A speed=21.6x    frame=22905 fps=517 q=-0.0 size=N/A time=00:15:55.32 bitrate=N/A speed=21.5x    frame=23167 fps=516 q=-0.0 size=N/A time=00:16:06.25 bitrate=N/A speed=21.5x    frame=23406 fps=516 q=-0.0 size=N/A time=00:16:16.22 bitrate=N/A speed=21.5x    frame=23682 fps=516 q=-0.0 size=N/A time=00:16:27.73 bitrate=N/A speed=21.5x    frame=23917 fps=515 q=-0.0 size=N/A time=00:16:37.53 bitrate=N/A speed=21.5x    frame=24149 fps=515 q=-0.0 size=N/A time=00:16:47.21 bitrate=N/A speed=21.5x    frame=24441 fps=515 q=-0.0 size=N/A time=00:16:59.39 bitrate=N/A speed=21.5x    frame=24714 fps=515 q=-0.0 size=N/A time=00:17:10.77 bitrate=N/A speed=21.5x    frame=24987 fps=516 q=-0.0 size=N/A time=00:17:22.16 bitrate=N/A speed=21.5x    frame=25232 fps=515 q=-0.0 size=N/A time=00:17:32.38 bitrate=N/A speed=21.5x    frame=25485 fps=515 q=-0.0 size=N/A time=00:17:42.93 bitrate=N/A speed=21.5x    frame=25736 fps=515 q=-0.0 size=N/A time=00:17:53.40 bitrate=N/A speed=21.5x    frame=26003 fps=515 q=-0.0 size=N/A time=00:18:04.54 bitrate=N/A speed=21.5x    frame=26282 fps=515 q=-0.0 size=N/A time=00:18:16.17 bitrate=N/A speed=21.5x    frame=26576 fps=515 q=-0.0 size=N/A time=00:18:28.44 bitrate=N/A speed=21.5x    frame=26871 fps=516 q=-0.0 size=N/A time=00:18:40.74 bitrate=N/A speed=21.5x    frame=27150 fps=516 q=-0.0 size=N/A time=00:18:52.38 bitrate=N/A speed=21.5x    frame=27429 fps=516 q=-0.0 size=N/A time=00:19:04.01 bitrate=N/A speed=21.5x    frame=27712 fps=517 q=-0.0 size=N/A time=00:19:15.82 bitrate=N/A speed=21.6x    frame=27969 fps=517 q=-0.0 size=N/A time=00:19:26.54 bitrate=N/A speed=21.5x    frame=28264 fps=517 q=-0.0 size=N/A time=00:19:38.84 bitrate=N/A speed=21.6x    frame=28459 fps=516 q=-0.0 size=N/A time=00:19:46.97 bitrate=N/A speed=21.5x    frame=28752 fps=516 q=-0.0 size=N/A time=00:19:59.19 bitrate=N/A speed=21.5x    frame=29015 fps=516 q=-0.0 size=N/A time=00:20:10.16 bitrate=N/A speed=21.5x    frame=29285 fps=516 q=-0.0 size=N/A time=00:20:21.42 bitrate=N/A speed=21.5x    frame=29549 fps=516 q=-0.0 size=N/A time=00:20:32.43 bitrate=N/A speed=21.5x    frame=29815 fps=516 q=-0.0 size=N/A time=00:20:43.53 bitrate=N/A speed=21.5x    frame=30016 fps=515 q=-0.0 size=N/A time=00:20:51.91 bitrate=N/A speed=21.5x    frame=30191 fps=514 q=-0.0 size=N/A time=00:20:59.21 bitrate=N/A speed=21.4x    frame=30440 fps=513 q=-0.0 size=N/A time=00:21:09.60 bitrate=N/A speed=21.4x    frame=30612 fps=512 q=-0.0 size=N/A time=00:21:16.77 bitrate=N/A speed=21.3x    frame=30753 fps=510 q=-0.0 size=N/A time=00:21:22.65 bitrate=N/A speed=21.3x    frame=30892 fps=508 q=-0.0 size=N/A time=00:21:28.45 bitrate=N/A speed=21.2x    frame=31012 fps=505 q=-0.0 size=N/A time=00:21:33.45 bitrate=N/A speed=21.1x    frame=31162 fps=504 q=-0.0 size=N/A time=00:21:39.71 bitrate=N/A speed=  21x    frame=31302 fps=502 q=-0.0 size=N/A time=00:21:45.55 bitrate=N/A speed=20.9x    frame=31439 fps=500 q=-0.0 size=N/A time=00:21:51.26 bitrate=N/A speed=20.8x    frame=31573 fps=498 q=-0.0 size=N/A time=00:21:56.85 bitrate=N/A speed=20.8x    frame=31702 fps=496 q=-0.0 size=N/A time=00:22:02.23 bitrate=N/A speed=20.7x    frame=31866 fps=494 q=-0.0 size=N/A time=00:22:09.07 bitrate=N/A speed=20.6x    frame=32022 fps=493 q=-0.0 size=N/A time=00:22:15.58 bitrate=N/A speed=20.6x    frame=32176 fps=491 q=-0.0 size=N/A time=00:22:22.00 bitrate=N/A speed=20.5x    frame=32318 fps=490 q=-0.0 size=N/A time=00:22:27.92 bitrate=N/A speed=20.4x    frame=32471 fps=488 q=-0.0 size=N/A time=00:22:34.31 bitrate=N/A speed=20.4x    frame=32636 fps=487 q=-0.0 size=N/A time=00:22:41.19 bitrate=N/A speed=20.3x    frame=32862 fps=487 q=-0.0 size=N/A time=00:22:50.61 bitrate=N/A speed=20.3x    frame=33097 fps=486 q=-0.0 size=N/A time=00:23:00.42 bitrate=N/A speed=20.3x    frame=33387 fps=487 q=-0.0 size=N/A time=00:23:12.51 bitrate=N/A speed=20.3x    frame=33642 fps=487 q=-0.0 size=N/A time=00:23:23.15 bitrate=N/A speed=20.3x    frame=33859 fps=486 q=-0.0 size=N/A time=00:23:32.20 bitrate=N/A speed=20.3x    frame=34059 fps=486 q=-0.0 size=N/A time=00:23:40.54 bitrate=N/A speed=20.3x    [Parsed_ssim_10 @ 000002eb21113580] SSIM Y:0.994993 (23.003802) U:0.994920 (22.941699) V:0.994596 (22.673233) All:0.994914 (22.936653)
[out#0/null @ 000002eb14072280] video:14645KiB audio:266580KiB subtitle:0KiB other streams:0KiB global headers:0KiB muxing overhead: unknown
frame=34084 fps=486 q=-0.0 Lsize=N/A time=00:23:41.58 bitrate=N/A speed=20.3x    
